<svg width="93" height="68" viewBox="0 0 93 68" fill="none" xmlns="http://www.w3.org/2000/svg">
<path fill-rule="evenodd" clip-rule="evenodd" d="M46.2592 7.73383C46.3895 7.73383 46.5194 7.73361 46.6485 7.7331C51.9281 7.71143 56.1269 7.20711 61.8335 4.65798C62.4905 5.15164 62.3662 4.93483 63.7231 6.1895C64.8299 4.79811 67.8246 1.33245 70.215 0.101807C72.4285 3.51797 73.7098 11.7084 72.6679 15.5731C74.011 15.6761 78.4618 16.4739 82.4595 17.584C81.517 19.1898 77.8502 22.7583 76.8145 24.0688C77.3844 24.404 86.6429 28.4888 89.1032 29.6209L73.7405 36.3812L92.5192 50.5363L70.352 48.3725L76.0062 55.4636L64.2937 52.7559L67.7636 61.2638L54.5129 55.3563L51.9295 63.6457C50.9308 66.8503 49.6345 67.1765 46.2592 67.2115V65.853C46.2157 65.8518 46.1724 65.8505 46.1291 65.8487C43.7959 65.7514 41.5278 65.4962 41.4176 62.5819C42.5736 65.0365 44.5937 65.0767 46.1315 65.0767C46.1738 65.0767 46.2164 65.0765 46.2592 65.076V62.573L46.195 62.5737H46.1882C46.1829 62.5737 46.1777 62.5737 46.1725 62.5737L46.1657 62.5736C43.337 62.5536 41.8693 62.0648 41.093 60.6622C39.0216 56.9198 39.4948 52.5649 38.053 48.1898C36.6556 43.9495 36.4792 39.6922 31.1156 36.0452C36.1228 37.8962 38.1248 44.5731 40.5568 52.5948C40.6206 50.2218 40.5175 49.4721 40.1777 47.9917C41.0434 49.2025 41.67 52.3541 41.8296 57.1322C41.8577 57.9719 41.8078 58.6459 42.0903 59.4579C42.39 60.3194 42.938 60.7705 43.1023 60.9445C42.861 60.3089 42.6424 57.4921 43.9251 55.8387C43.7663 56.655 43.7716 58.3393 44.2528 59.2466C44.361 58.9538 44.4139 58.6656 44.817 58.1134C44.8175 58.8529 44.9013 59.2635 45.0488 59.2782C45.2874 59.296 45.3123 58.8708 45.6311 58.5642C45.8709 58.9841 45.9794 59.3272 46.1803 60.2048C46.2082 60.083 46.2342 59.9712 46.2592 59.8684V55.1059L46.2138 55.1678C44.928 53.7258 44.0742 52.0325 43.9238 50.0674C44.6267 52.5991 45.9729 52.2002 46.2138 53.0352C46.2255 52.9891 46.2409 52.9467 46.2592 52.9071V40.6675C46.2013 40.6707 46.1618 40.6697 46.0935 40.6647C43.463 40.4645 40.5937 38.9317 38.1839 38.1114C39.247 30.767 33.893 28.8241 20.917 28.4803C13.8304 28.2925 7.05271 29.5046 6.16883 29.416C11.5517 26.5233 18.924 24.697 22.1165 21.0397C19.0166 19.3385 15.0728 19.1061 11.6714 18.0286L18.9478 16.473L21.9961 18.4955C20.1384 15.2718 20.2297 9.74752 21.0632 5.65715C20.8403 8.36307 21.2564 11.1693 22.0549 12.9224C22.0749 12.2499 22.0478 11.8104 22.4123 11.0195C22.4151 11.5111 22.2819 13.5328 22.8983 15.0163C22.9919 13.7927 23.0664 12.6051 23.4521 11.7972C23.5918 12.631 23.4829 15.4515 24.3896 16.9013C24.313 15.6498 24.3173 14.5489 24.5106 13.6705C24.757 14.5177 25.0616 17.1475 25.6463 17.817C25.4865 16.7928 25.5052 15.5408 25.7216 15.1583C25.9006 15.9817 26.978 18.5869 28.0413 19.3246C26.5074 20.1897 25.1544 20.2702 23.3392 20.0489C24.6318 22.3761 27.281 21.1521 29.4982 23.9219C28.4799 19.4017 32.4352 18.674 32.2008 14.4959C32.0239 15.1741 31.7278 15.5732 31.5067 15.5371C31.3965 15.5192 31.2147 15.3149 31.1445 15.2361C29.8574 13.7909 27.07 6.84584 22.495 1.40328C22.5424 1.32405 22.5897 1.2479 22.6375 1.17763C27.11 4.76594 30.1758 8.83712 31.9556 12.7473C38.0914 10.8701 41.0724 14.3465 45.9728 14.2148C46.0752 14.2122 46.1661 14.2116 46.2592 14.2124V7.73383ZM46.2592 38.7197V32.9956C45.0004 32.9939 43.7368 32.9958 43.0241 32.9958C42.6459 32.9958 41.9664 32.0099 41.5783 31.4365C40.9755 32.4962 40.3727 33.5558 39.7698 34.6155C41.5198 36.3409 43.7295 38.7065 46.2592 38.7197ZM46.2592 22.7852V22.0206H44.8734C45.0409 19.68 45.0074 17.5206 44.7328 15.2604C44.6946 17.3194 44.5564 19.0967 44.0093 21.0951C43.0125 19.7218 42.2626 18.9977 40.958 18.0325C40.3863 17.6096 39.0908 17.1157 38.6604 16.542C38.3175 16.085 38.6404 14.7188 38.8451 14.2142C38.4518 14.5764 38.2667 15.0775 38.1818 15.7358C38.0885 16.46 38.3166 16.8467 38.8665 17.3272C39.6461 18.0085 40.7679 18.5929 41.7035 19.4627C43.3422 20.9861 44.1244 22.9711 42.5021 23.848C42.4461 23.8782 42.1744 23.9827 41.9819 24C41.6347 24.031 41.8644 23.8811 41.9921 23.8086C43.2338 23.1024 42.5778 22.4829 41.4168 22.5056C41.1862 22.51 40.8308 22.205 40.6058 22.079L34.7626 18.8075C31.7206 17.7977 29.7249 20.3464 29.8148 22.1073C29.8423 22.6462 30.3624 23.3223 30.6827 23.6166C30.3279 22.996 30.4499 21.7663 30.6119 21.7642C30.7459 21.7624 30.7793 22.3727 30.9975 22.7534C31.4741 23.5851 32.5419 24.1889 33.6807 24.7471C34.6158 25.2053 35.6233 25.8214 36.5894 26.0518C37.6181 26.297 38.6779 26.2183 39.3025 25.9839C37.6985 27.3273 34.0556 26.238 31.3486 24.2765C32.8844 26.623 35.7406 28.5751 40.3353 26.6525C41.8772 26.0073 42.2053 23.7288 44.8634 24.0426C44.8266 23.2411 44.9202 22.9931 45.225 22.7852H46.2592ZM42.4782 22.0609C41.2497 20.3269 39.8255 19.3922 37.8967 18.9022C39.4132 19.7874 40.7608 21.4555 42.4782 22.0609ZM49.8572 22.0609C51.0857 20.3269 52.5099 19.3922 54.4387 18.9022C52.9221 19.7874 51.5746 21.4555 49.8572 22.0609ZM34.5949 20.23C35.995 20.9341 36.9138 21.3471 38.259 22.0042C38.3583 22.0527 38.5213 22.2655 38.3344 22.6349C37.2144 24.8463 34.323 23.2676 34.5949 20.23ZM57.8145 20.23C56.4143 20.9341 55.4955 21.3471 54.1504 22.0042C54.051 22.0527 53.8881 22.2655 54.075 22.6349C55.1949 24.8463 58.0864 23.2676 57.8145 20.23ZM67.0853 23.2178C66.2547 23.9387 65.796 26.0278 65.749 26.8696C64.3174 26.886 62.003 27.2618 59.7498 27.8278C54.757 29.0819 51.6652 30.2143 53.0794 34.0925C53.0862 33.1368 53.6987 31.0002 55.0713 30.3744C54.392 31.1768 54.3238 31.7592 54.4156 32.4915C54.8386 31.2887 56.4552 30.018 58.624 29.1954C60.9929 28.2968 63.9576 27.8463 66.0333 27.8299C66.4432 27.8267 66.6993 27.5894 66.6824 27.2364C66.6061 25.6513 66.8646 24.3825 67.0853 23.2178ZM68.9669 22.6142C68.843 23.7777 68.8295 25.4443 69.0674 26.286C73.1398 26.3329 77.0315 27.1243 80.481 28.0163C76.3282 27.5602 72.3964 27.2853 68.0024 27.4329C67.9153 25.4209 68.2703 23.9421 68.9669 22.6142ZM25.2473 23.2178C26.0779 23.9387 26.5366 26.0278 26.5836 26.8696C28.0152 26.886 30.3297 27.2618 32.5829 27.8278C37.5756 29.0819 40.6674 30.2143 39.2532 34.0925C39.2464 33.1368 38.6339 31.0002 37.2613 30.3744C37.9406 31.1768 38.0088 31.7592 37.9171 32.4915C37.494 31.2887 35.8774 30.018 33.7086 29.1954C31.3397 28.2968 28.375 27.8463 26.2993 27.8299C25.8894 27.8267 25.6333 27.5894 25.6503 27.2364C25.7265 25.6513 25.4681 24.3825 25.2473 23.2178ZM23.3657 22.6142C23.4896 23.7777 23.5031 25.4443 23.2652 26.286C19.1928 26.3329 15.3011 27.1243 11.8516 28.0163C16.0044 27.5602 19.9362 27.2853 24.3302 27.4329C24.4173 25.4209 24.0623 23.9421 23.3657 22.6142ZM45.9644 25.1392C43.0229 24.8478 42.4685 25.3229 41.2624 27.4932C43.0642 25.7897 44.2029 25.3538 45.9644 25.1392ZM44.4172 26.8292C44.0782 26.648 43.6693 26.6155 42.9319 26.7822C42.3619 26.9112 41.4522 28.1804 40.5594 28.456C39.4816 28.7887 39.1472 28.6319 36.932 28.3583C38.2211 29.1223 39.5512 29.6849 40.4404 29.5726C41.177 29.4795 41.6747 28.885 42.7175 28.3779C43.0443 28.2191 43.4563 28.3329 43.8779 28.2344C44.2499 28.1475 44.7559 27.7442 44.9496 27.3021C44.4563 27.6101 44.1079 27.6575 43.2617 27.6977C43.0232 27.709 43.0381 27.5319 43.1649 27.4208C43.5423 27.0902 43.8206 26.9371 44.4172 26.8292ZM46.4211 25.1392C49.3626 24.8478 49.917 25.3229 51.1231 27.4932C49.3213 25.7897 48.1826 25.3538 46.4211 25.1392ZM47.9683 26.8292C48.3073 26.648 48.7161 26.6155 49.4536 26.7822C50.0235 26.9112 50.9333 28.1804 51.8261 28.456C52.9039 28.7887 53.2383 28.6319 55.4535 28.3583C54.1644 29.1223 52.8343 29.6849 51.945 29.5726C51.2084 29.4795 50.7108 28.885 49.6679 28.3779C49.3412 28.2191 48.9291 28.3329 48.5075 28.2344C48.1356 28.1475 47.6296 27.7442 47.4359 27.3021C47.9292 27.6101 48.2776 27.6575 49.1238 27.6977C49.3623 27.709 49.3474 27.5319 49.2205 27.4208C48.8431 27.0902 48.5649 26.9371 47.9683 26.8292ZM49.3436 42.4417C49.7689 41.8146 50.116 41.4714 50.8459 41.2583C51.3152 41.1214 51.1938 41.2849 51.2043 41.723C51.2507 43.6462 50.9679 45.3658 49.174 47.5726C49.2203 46.1599 49.3946 44.6189 49.1619 43.1861C49.0996 42.8013 49.1183 42.7737 49.3436 42.4417ZM48.9398 42.6656C48.961 43.6571 48.7418 44.1714 47.9851 45.3798C48.0062 44.6514 47.9951 43.8569 47.8892 43.1181C47.8524 42.861 47.9512 42.5037 48.1407 42.3172C48.3588 42.1024 48.9307 42.2347 48.9398 42.6656ZM47.7427 43.229C47.8069 44.1543 47.4903 44.242 46.5839 45.3695C46.5827 44.6898 46.7129 43.9484 46.5514 43.2591C46.4954 43.0191 46.4924 42.6857 46.7238 42.5116C46.99 42.3112 47.7148 42.827 47.7427 43.229ZM43.0575 42.4417C42.6322 41.8146 42.285 41.4714 41.5552 41.2583C41.0859 41.1214 41.2073 41.2849 41.1968 41.723C41.1503 43.6462 41.4332 45.3658 43.2271 47.5726C43.1808 46.1599 43.0064 44.6189 43.2392 43.1861C43.3015 42.8013 43.2828 42.7737 43.0575 42.4417ZM43.4612 42.6656C43.4401 43.6571 43.6593 44.1714 44.4159 45.3798C44.3949 44.6514 44.4059 43.8569 44.5119 43.1181C44.5487 42.861 44.4498 42.5037 44.2604 42.3172C44.0423 42.1024 43.4704 42.2347 43.4612 42.6656ZM44.6584 43.229C44.5942 44.1543 44.9108 44.242 45.8172 45.3695C45.8184 44.6898 45.6882 43.9484 45.8497 43.2591C45.9057 43.0191 45.9087 42.6857 45.6773 42.5116C45.4111 42.3112 44.6862 42.827 44.6584 43.229ZM36.9009 50.1368L33.5051 49.9156L29.2277 52.0752L26.251 59.8546L36.9009 50.1368ZM35.8731 50.4095C33.3346 51.9787 30.5549 54.1919 27.9761 56.6868C28.5053 55.4326 29.1349 54.1785 29.664 52.9244C31.7739 51.6434 33.6426 50.2216 35.8731 50.4095ZM35.2689 45.9117L28.0351 44.5033C23.2393 47.2932 22.1005 49.2985 18.5102 54.1205L35.2689 45.9117ZM33.0952 45.963C31.4877 45.7484 30.0158 45.549 28.4082 45.3343C26.4624 46.5868 22.894 48.3573 21.32 51.1137C23.9462 49.3099 25.3316 48.1524 27.7871 46.8818C28.1243 46.6804 28.5969 46.8015 28.065 47.1797L23.4098 50.1882L33.0952 45.963ZM31.3078 37.8749L21.984 34.6961L2.97478 49.0212L31.3078 37.8749ZM28.4441 37.7944L21.9336 35.4606L9.43485 44.5546C13.2359 42.2408 16.9742 39.8263 20.7752 37.5125C21.5528 37.0391 21.7893 37.3955 21.1347 37.8865L14.6594 42.3466C17.8405 40.9114 20.9339 39.2571 24.1152 37.822C24.6271 37.591 24.6884 37.9717 24.3561 38.1398L19.9442 40.7772L28.4441 37.7944ZM55.6529 50.1368L59.0487 49.9156L63.3261 52.0752L66.3028 59.8546L55.6529 50.1368ZM56.7496 50.4095C59.2881 51.9787 62.0678 54.1919 64.6466 56.6868C64.1174 55.4326 63.4878 54.1785 62.9587 52.9244C60.8488 51.6434 58.9801 50.2216 56.7496 50.4095ZM56.9992 45.8312L64.233 44.4228C68.8681 47.6553 70.7704 49.0973 73.5568 53.9998L56.9992 45.8312ZM59.1408 45.963C60.7483 45.7484 62.2202 45.549 63.8278 45.3343C65.7736 46.5868 69.342 48.3573 70.9161 51.1137C68.2899 49.3099 66.9044 48.1524 64.449 46.8818C64.1118 46.6804 63.6391 46.8015 64.1711 47.1797L68.8263 50.1882L59.1408 45.963ZM60.8288 37.8749L70.1525 34.6961L89.1618 49.0212L60.8288 37.8749ZM63.5214 37.7944L70.0319 35.4606L82.5306 44.5546C78.7296 42.2408 74.9913 39.8263 71.1903 37.5125C70.4126 37.0391 70.1762 37.3955 70.8308 37.8865L77.3061 42.3466C74.1249 40.9114 71.0315 39.2571 67.8503 37.822C67.3384 37.591 67.277 37.9717 67.6094 38.1398L72.0213 40.7772L63.5214 37.7944ZM30.6857 4.65815C36.427 7.22279 40.6421 7.71767 45.967 7.73349C46.0643 7.73374 46.1612 7.73383 46.2592 7.73383V14.2124C46.3312 14.2128 46.4053 14.2146 46.4857 14.2162C51.3498 14.3176 54.3314 10.8778 60.4418 12.7473C62.2216 8.83705 65.2873 4.76587 69.7598 1.17756C69.809 1.24976 69.8576 1.32796 69.9062 1.40961C65.3344 6.85122 62.5486 13.7914 61.2621 15.236C61.1919 15.3149 61.0101 15.5192 60.8999 15.537C60.6788 15.5731 60.3827 15.174 60.2058 14.4958C59.9714 18.6739 63.9267 19.4016 62.9084 23.9219C65.1256 21.152 67.7748 22.376 69.0674 20.0488C67.2522 20.2701 65.8992 20.1897 64.3653 19.3245C65.4286 18.5868 66.506 15.9816 66.685 15.1583C66.9014 15.5407 66.9201 16.7927 66.7603 17.8169C67.345 17.1475 67.6496 14.5176 67.896 13.6704C68.0893 14.5488 68.0936 15.6497 68.017 16.9012C68.9237 15.4514 68.8148 12.6309 68.9545 11.7972C69.3402 12.605 69.4147 13.7927 69.5083 15.0162C70.1247 13.5327 69.9915 11.5111 69.9943 11.0194C70.3588 11.8103 70.3317 12.2499 70.3517 12.9223C71.1431 11.1848 71.5587 8.41296 71.349 5.72947C72.1688 9.81239 72.248 15.2908 70.4013 18.4955L73.4495 16.4729L80.7259 18.0285C77.3246 19.106 73.3808 19.3385 70.2809 21.0397C73.4734 24.6969 80.8457 26.5232 86.2286 29.4159C85.3446 29.5046 78.5669 28.2924 71.4804 28.4802C58.5044 28.8241 53.1504 30.7669 54.2135 38.1113C51.8019 38.9322 48.9302 40.4667 46.2981 40.665L46.2592 40.6675L46.26 52.9053C46.5807 52.2171 47.8568 52.4136 48.4737 49.9165C48.4937 51.5075 47.3702 53.5874 46.26 55.1048V59.8649C46.4143 59.2291 46.5233 58.9252 46.7295 58.5642C47.0483 58.8708 47.0733 59.2961 47.3118 59.2783C47.4593 59.2636 47.5431 58.8529 47.5437 58.1134C47.9467 58.6656 47.9996 58.9538 48.1079 59.2466C48.589 58.3393 48.5944 56.655 48.4356 55.8388C49.7183 57.4921 49.4996 60.3089 49.2584 60.9445C49.4226 60.7705 49.9706 60.3195 50.2704 59.4579C50.5528 58.6459 50.503 57.972 50.531 57.1322C50.6906 52.3541 51.3172 49.2025 52.183 47.9918C51.8432 49.4721 51.74 50.2219 51.8038 52.5948C54.2358 44.5731 56.2378 37.8962 61.245 36.0452C55.8814 39.6922 55.7051 43.9495 54.3076 48.1899C52.8658 52.5649 53.339 56.9198 51.2676 60.6622C50.4973 62.054 49.0452 62.5458 46.2592 62.573V65.076C47.8752 65.0607 49.8762 64.7375 50.9423 62.5819C51.0195 65.1776 48.4899 65.9147 46.2592 65.853V67.2115C42.8839 67.1771 41.5884 66.8504 40.5897 63.6459L38.0062 55.3565L24.7556 61.2639L28.2255 52.7561L16.513 55.4638L22.1672 48.3726L0 50.5365L18.7787 36.3814L3.41597 29.6211C5.87629 28.489 15.1347 24.4042 15.7047 24.069C14.669 22.7585 11.0022 19.19 10.0596 17.5841C14.0574 16.474 18.5082 15.6763 19.8513 15.5733C18.8094 11.7086 20.0906 3.51811 22.3042 0.101952C24.6946 1.33261 27.6892 4.79825 28.7961 6.18967C30.153 4.935 30.0287 5.15178 30.6857 4.65815ZM46.2592 22.0206V22.7852H46.9335C47.2383 22.9931 47.332 23.2411 47.2952 24.0426C49.9532 23.7288 50.2813 26.0073 51.8233 26.6525C56.4179 28.5751 59.2742 26.623 60.8099 24.2765C58.1029 26.238 54.46 27.3273 52.8561 25.9839C53.4806 26.2183 54.5405 26.297 55.5691 26.0518C56.5353 25.8214 57.5428 25.2053 58.4778 24.7471C59.6167 24.1889 60.6844 23.5851 61.161 22.7534C61.3792 22.3727 61.4127 21.7624 61.5467 21.7642C61.7087 21.7663 61.8306 22.996 61.4758 23.6166C61.7962 23.3223 62.3162 22.6462 62.3437 22.1073C62.4337 20.3464 60.4379 17.7977 57.396 18.8075L51.5527 22.079C51.3277 22.205 50.9723 22.51 50.7417 22.5056C49.5808 22.4829 48.9247 23.1024 50.1664 23.8086C50.2941 23.8811 50.5238 24.031 50.1766 24C49.9841 23.9827 49.7124 23.8782 49.6565 23.848C48.0341 22.9711 48.8163 20.9861 50.455 19.4627C51.3906 18.5929 52.5125 18.0085 53.2921 17.3272C53.8419 16.8467 54.0701 16.46 53.9768 15.7358C53.8919 15.0775 53.7068 14.5764 53.3134 14.2142C53.5181 14.7188 53.841 16.085 53.4982 16.542C53.0677 17.1157 51.7722 17.6096 51.2005 18.0325C49.8959 18.9977 49.146 19.7218 48.1492 21.0951C47.6021 19.0967 47.4639 17.3194 47.4258 15.2604C47.1511 17.5206 47.1177 19.68 47.2851 22.0206H46.2592ZM46.2592 32.9956V38.7197L46.2804 38.72C48.7521 38.72 50.9424 36.386 52.6302 34.6155C52.014 33.5558 51.3978 32.4962 50.7816 31.4366C50.2851 32.1106 49.8293 33.0384 49.2907 33.0143C48.5737 33.0021 47.4181 32.9972 46.2592 32.9956Z" fill="black"/>
</svg>
